<?xml version="1.0" encoding="UTF-8" standalone="no"?>
<!DOCTYPE svg PUBLIC "-//W3C//DTD SVG 1.1//EN" "http://www.w3.org/Graphics/SVG/1.1/DTD/svg11.dtd">
<svg width="100%" height="100%" viewBox="0 0 1200 630" version="1.1" xmlns="http://www.w3.org/2000/svg" xmlns:xlink="http://www.w3.org/1999/xlink" xml:space="preserve" xmlns:serif="http://www.serif.com/" style="fill-rule:evenodd;clip-rule:evenodd;stroke-linejoin:round;stroke-miterlimit:2;">
    <g transform="matrix(1,0,0,1,0,-1301)">
        <g id="logo-light" transform="matrix(3.76176,0,0,2.34201,1613.79,638.212)">
            <rect x="-429" y="283" width="319" height="269" style="fill:none;"/>
            <g transform="matrix(1.21571,0,0,1.95269,-1073.09,126.984)">
                <g id="logo-text" transform="matrix(1.51938,0,0,1.51938,409.068,105.903)">
                    <g id="H" transform="matrix(0.705394,0,0,0.6875,26.2739,12.5)">
                        <path d="M84.741,76.364L98.245,76.364L98.245,47.018C98.245,37.091 102.816,31.309 111.429,31.309C119.403,31.309 123.337,36.655 123.337,46.473L123.337,76.364L136.84,76.364L136.84,45.273C136.84,26.4 126.952,19.745 114.831,19.745C106.644,19.745 101.541,23.018 98.245,27.055L98.245,0L84.741,0L84.741,76.364Z" style="fill-rule:nonzero;stroke:black;stroke-width:1.33px;"/>
                    </g>
                    <g id="A" transform="matrix(0.705394,0,0,0.6875,26.2739,12.5)">
                        <path d="M165.547,77.018C174.16,77.018 179.795,73.2 183.41,67.527L183.41,67.855C183.41,72.873 186.174,76.364 193.404,76.364L200.421,76.364L200.421,64.582L198.401,64.582C196.062,64.582 194.999,63.927 194.999,60.982L194.999,40.145C194.999,26.836 186.28,19.745 171.395,19.745C157.254,19.745 147.685,26.727 146.622,37.527L159.7,37.527C160.444,33.055 164.484,30.218 170.757,30.218C177.775,30.218 181.602,33.491 181.602,39.273L181.602,42.327L169.481,42.327C153.639,42.327 145.24,48.873 145.24,60.655C145.24,71.127 153.639,77.018 165.547,77.018ZM167.78,66.764C162.251,66.764 158.849,64.036 158.849,59.564C158.849,54.436 162.464,51.818 169.162,51.818L181.602,51.818L181.602,53.345C181.602,61.418 176.392,66.764 167.78,66.764Z" style="fill-rule:nonzero;stroke:black;stroke-width:1.33px;"/>
                    </g>
                    <g id="I" transform="matrix(0.705394,0,0,0.6875,26.2739,12.5)">
                        <path d="M206.801,76.364L220.304,76.364L220.304,20.4L206.801,20.4L206.801,76.364ZM213.499,13.091C217.752,13.091 221.048,9.818 221.048,5.455C221.048,1.091 217.752,-2.182 213.499,-2.182C209.14,-2.182 205.95,1.091 205.95,5.455C205.95,9.818 209.14,13.091 213.499,13.091Z" style="fill-rule:nonzero;stroke:black;stroke-width:1.33px;"/>
                    </g>
                    <g id="L" transform="matrix(0.705394,0,0,0.6875,26.2739,12.5)">
                        <rect x="231.681" y="0" width="13.503" height="76.364" style="stroke:black;stroke-width:1.33px;"/>
                    </g>
                    <g id="O" transform="matrix(0.705394,0,0,0.6875,26.2739,12.5)">
                        <path d="M282.503,77.018C299.515,77.018 310.892,65.564 310.892,48.436C310.892,31.2 299.515,19.745 282.503,19.745C265.491,19.745 254.115,31.2 254.115,48.436C254.115,65.564 265.491,77.018 282.503,77.018ZM282.503,65.564C273.572,65.564 267.937,58.473 267.937,48.436C267.937,38.291 273.572,31.2 282.503,31.2C291.434,31.2 297.07,38.291 297.07,48.436C297.07,58.473 291.434,65.564 282.503,65.564Z" style="fill-rule:nonzero;stroke:black;stroke-width:1.33px;"/>
                    </g>
                </g>
                <g transform="matrix(0.900872,0,0,0.256816,531.349,92.208)">
                    <ellipse cx="161" cy="40" rx="109" ry="40" style="fill:none;stroke:rgb(255,222,0);stroke-width:17.04px;stroke-linecap:round;stroke-miterlimit:1.5;"/>
                </g>
            </g>
        </g>
    </g>
</svg>
